<mxfile host="app.diagrams.net" agent="Mozilla/5.0 (Windows NT 10.0; Win64; x64) AppleWebKit/537.36 (KHTML, like Gecko) Chrome/133.0.0.0 Safari/537.36 OPR/118.0.0.0" version="26.2.14">
  <diagram name="Сторінка-1" id="EWD52vy8kLP0P7qGVwE1">
    <mxGraphModel dx="1441" dy="639" grid="1" gridSize="10" guides="1" tooltips="1" connect="1" arrows="1" fold="1" page="1" pageScale="1" pageWidth="5000" pageHeight="4000" math="0" shadow="0">
      <root>
        <mxCell id="0" />
        <mxCell id="1" parent="0" />
        <mxCell id="hRoo1BihgLkBD7Z-H8el-1" value="" style="rounded=0;whiteSpace=wrap;html=1;" vertex="1" parent="1">
          <mxGeometry x="900" y="560" width="440" height="270" as="geometry" />
        </mxCell>
        <mxCell id="hRoo1BihgLkBD7Z-H8el-2" value="START" style="rounded=0;whiteSpace=wrap;html=1;" vertex="1" parent="1">
          <mxGeometry x="1020" y="620" width="200" height="30" as="geometry" />
        </mxCell>
        <mxCell id="hRoo1BihgLkBD7Z-H8el-3" value="SETTINGS" style="rounded=0;whiteSpace=wrap;html=1;" vertex="1" parent="1">
          <mxGeometry x="1020" y="660" width="200" height="30" as="geometry" />
        </mxCell>
        <mxCell id="hRoo1BihgLkBD7Z-H8el-4" value="INFORMATION" style="rounded=0;whiteSpace=wrap;html=1;" vertex="1" parent="1">
          <mxGeometry x="1020" y="700" width="200" height="30" as="geometry" />
        </mxCell>
        <mxCell id="hRoo1BihgLkBD7Z-H8el-5" value="EXIT" style="rounded=0;whiteSpace=wrap;html=1;" vertex="1" parent="1">
          <mxGeometry x="1020" y="740" width="200" height="30" as="geometry" />
        </mxCell>
        <mxCell id="hRoo1BihgLkBD7Z-H8el-7" value="" style="endArrow=classic;html=1;rounded=0;exitX=1;exitY=0.5;exitDx=0;exitDy=0;" edge="1" parent="1" source="hRoo1BihgLkBD7Z-H8el-2">
          <mxGeometry width="50" height="50" relative="1" as="geometry">
            <mxPoint x="1280" y="860" as="sourcePoint" />
            <mxPoint x="1440" y="635" as="targetPoint" />
          </mxGeometry>
        </mxCell>
        <mxCell id="hRoo1BihgLkBD7Z-H8el-8" value="" style="rounded=0;whiteSpace=wrap;html=1;" vertex="1" parent="1">
          <mxGeometry x="1440" y="560" width="440" height="270" as="geometry" />
        </mxCell>
        <mxCell id="hRoo1BihgLkBD7Z-H8el-16" style="edgeStyle=orthogonalEdgeStyle;rounded=0;orthogonalLoop=1;jettySize=auto;html=1;exitX=0.5;exitY=0;exitDx=0;exitDy=0;" edge="1" parent="1" source="hRoo1BihgLkBD7Z-H8el-9">
          <mxGeometry relative="1" as="geometry">
            <mxPoint x="1519.571428571429" y="440" as="targetPoint" />
          </mxGeometry>
        </mxCell>
        <mxCell id="hRoo1BihgLkBD7Z-H8el-9" value="&lt;font style=&quot;font-size: 24px;&quot;&gt;1&lt;/font&gt;" style="rounded=0;whiteSpace=wrap;html=1;" vertex="1" parent="1">
          <mxGeometry x="1460" y="580" width="120" height="170" as="geometry" />
        </mxCell>
        <mxCell id="hRoo1BihgLkBD7Z-H8el-17" style="edgeStyle=orthogonalEdgeStyle;rounded=0;orthogonalLoop=1;jettySize=auto;html=1;exitX=0.5;exitY=0;exitDx=0;exitDy=0;" edge="1" parent="1" source="hRoo1BihgLkBD7Z-H8el-10">
          <mxGeometry relative="1" as="geometry">
            <mxPoint x="1659.571428571429" y="440" as="targetPoint" />
          </mxGeometry>
        </mxCell>
        <mxCell id="hRoo1BihgLkBD7Z-H8el-10" value="&lt;font style=&quot;font-size: 24px;&quot;&gt;2&lt;/font&gt;" style="rounded=0;whiteSpace=wrap;html=1;" vertex="1" parent="1">
          <mxGeometry x="1600" y="580" width="120" height="170" as="geometry" />
        </mxCell>
        <mxCell id="hRoo1BihgLkBD7Z-H8el-18" style="edgeStyle=orthogonalEdgeStyle;rounded=0;orthogonalLoop=1;jettySize=auto;html=1;exitX=0.5;exitY=0;exitDx=0;exitDy=0;" edge="1" parent="1" source="hRoo1BihgLkBD7Z-H8el-11">
          <mxGeometry relative="1" as="geometry">
            <mxPoint x="1799.571428571429" y="440" as="targetPoint" />
          </mxGeometry>
        </mxCell>
        <mxCell id="hRoo1BihgLkBD7Z-H8el-11" value="&lt;font style=&quot;font-size: 24px;&quot;&gt;3&lt;/font&gt;" style="rounded=0;whiteSpace=wrap;html=1;" vertex="1" parent="1">
          <mxGeometry x="1740" y="580" width="120" height="170" as="geometry" />
        </mxCell>
        <mxCell id="hRoo1BihgLkBD7Z-H8el-12" value="Back to Menu" style="rounded=0;whiteSpace=wrap;html=1;" vertex="1" parent="1">
          <mxGeometry x="1560" y="770" width="210" height="40" as="geometry" />
        </mxCell>
        <mxCell id="hRoo1BihgLkBD7Z-H8el-20" style="edgeStyle=orthogonalEdgeStyle;rounded=0;orthogonalLoop=1;jettySize=auto;html=1;exitX=0;exitY=0.5;exitDx=0;exitDy=0;entryX=0.998;entryY=0.855;entryDx=0;entryDy=0;entryPerimeter=0;" edge="1" parent="1" source="hRoo1BihgLkBD7Z-H8el-12" target="hRoo1BihgLkBD7Z-H8el-1">
          <mxGeometry relative="1" as="geometry" />
        </mxCell>
        <mxCell id="hRoo1BihgLkBD7Z-H8el-21" value="&lt;font style=&quot;font-size: 18px;&quot;&gt;Game 1&lt;/font&gt;" style="rounded=0;whiteSpace=wrap;html=1;" vertex="1" parent="1">
          <mxGeometry x="1460" y="380" width="120" height="60" as="geometry" />
        </mxCell>
        <mxCell id="hRoo1BihgLkBD7Z-H8el-22" value="&lt;span style=&quot;font-size: 18px;&quot;&gt;Game 2&lt;/span&gt;" style="rounded=0;whiteSpace=wrap;html=1;" vertex="1" parent="1">
          <mxGeometry x="1600" y="380" width="120" height="60" as="geometry" />
        </mxCell>
        <mxCell id="hRoo1BihgLkBD7Z-H8el-23" value="&lt;span style=&quot;font-size: 18px;&quot;&gt;Game 3&lt;/span&gt;" style="rounded=0;whiteSpace=wrap;html=1;" vertex="1" parent="1">
          <mxGeometry x="1740" y="380" width="120" height="60" as="geometry" />
        </mxCell>
        <mxCell id="hRoo1BihgLkBD7Z-H8el-24" value="EXIT?" style="rounded=0;whiteSpace=wrap;html=1;" vertex="1" parent="1">
          <mxGeometry x="1015" y="900" width="210" height="140" as="geometry" />
        </mxCell>
      </root>
    </mxGraphModel>
  </diagram>
</mxfile>
